ISO-10303-21;
HEADER;
/* Generated by software containing ST-Developer
 * from STEP Tools, Inc. (www.steptools.com) 
 */

FILE_DESCRIPTION(
/* description */ (''),
/* implementation_level */ '2;1');

FILE_NAME(
/* name */ 'TAB30_Rev_B.step',
/* time_stamp */ '2026-09-05T15:01:28-05:00',
/* author */ (''),
/* organization */ (''),
/* preprocessor_version */ 'ST-DEVELOPER v20.1',
/* originating_system */ 'Autodesk Translation Framework v14.24.0.0',
/* authorisation */ '');

FILE_SCHEMA (('AUTOMOTIVE_DESIGN { 1 0 10303 214 3 1 1 }'));
ENDSEC;

DATA;
#10=MECHANICAL_DESIGN_GEOMETRIC_PRESENTATION_REPRESENTATION('',(#13),#375);
#11=SHAPE_REPRESENTATION_RELATIONSHIP('SRR','None',#382,#12);
#12=ADVANCED_BREP_SHAPE_REPRESENTATION('',(#14),#374);
#13=STYLED_ITEM('',(#392),#14);
#14=MANIFOLD_SOLID_BREP('TAB30 (1)',#227);
#15=FACE_OUTER_BOUND('',#29,.T.);
#16=FACE_OUTER_BOUND('',#30,.T.);
#17=FACE_OUTER_BOUND('',#31,.T.);
#18=FACE_OUTER_BOUND('',#32,.T.);
#19=FACE_OUTER_BOUND('',#33,.T.);
#20=FACE_OUTER_BOUND('',#34,.T.);
#21=FACE_OUTER_BOUND('',#35,.T.);
#22=FACE_OUTER_BOUND('',#36,.T.);
#23=FACE_OUTER_BOUND('',#37,.T.);
#24=FACE_OUTER_BOUND('',#38,.T.);
#25=FACE_OUTER_BOUND('',#39,.T.);
#26=FACE_OUTER_BOUND('',#40,.T.);
#27=FACE_OUTER_BOUND('',#41,.T.);
#28=FACE_OUTER_BOUND('',#42,.T.);
#29=EDGE_LOOP('',(#143,#144,#145,#146));
#30=EDGE_LOOP('',(#147,#148,#149,#150));
#31=EDGE_LOOP('',(#151,#152,#153,#154));
#32=EDGE_LOOP('',(#155,#156,#157,#158));
#33=EDGE_LOOP('',(#159,#160,#161,#162));
#34=EDGE_LOOP('',(#163,#164,#165,#166));
#35=EDGE_LOOP('',(#167,#168,#169,#170));
#36=EDGE_LOOP('',(#171,#172,#173,#174));
#37=EDGE_LOOP('',(#175,#176,#177,#178));
#38=EDGE_LOOP('',(#179,#180,#181,#182));
#39=EDGE_LOOP('',(#183,#184,#185,#186));
#40=EDGE_LOOP('',(#187,#188,#189,#190));
#41=EDGE_LOOP('',(#191,#192,#193,#194));
#42=EDGE_LOOP('',(#195,#196,#197,#198));
#43=LINE('',#317,#71);
#44=LINE('',#319,#72);
#45=LINE('',#321,#73);
#46=LINE('',#322,#74);
#47=LINE('',#325,#75);
#48=LINE('',#327,#76);
#49=LINE('',#328,#77);
#50=LINE('',#331,#78);
#51=LINE('',#332,#79);
#52=LINE('',#336,#80);
#53=LINE('',#338,#81);
#54=LINE('',#340,#82);
#55=LINE('',#341,#83);
#56=LINE('',#344,#84);
#57=LINE('',#346,#85);
#58=LINE('',#347,#86);
#59=LINE('',#350,#87);
#60=LINE('',#351,#88);
#61=LINE('',#354,#89);
#62=LINE('',#355,#90);
#63=LINE('',#357,#91);
#64=LINE('',#359,#92);
#65=LINE('',#360,#93);
#66=LINE('',#362,#94);
#67=LINE('',#364,#95);
#68=LINE('',#365,#96);
#69=LINE('',#367,#97);
#70=LINE('',#369,#98);
#71=VECTOR('',#259,10.);
#72=VECTOR('',#260,10.);
#73=VECTOR('',#261,10.);
#74=VECTOR('',#262,10.);
#75=VECTOR('',#265,10.);
#76=VECTOR('',#266,10.);
#77=VECTOR('',#267,10.);
#78=VECTOR('',#270,10.);
#79=VECTOR('',#271,10.);
#80=VECTOR('',#274,10.);
#81=VECTOR('',#275,10.);
#82=VECTOR('',#276,10.);
#83=VECTOR('',#277,10.);
#84=VECTOR('',#280,10.);
#85=VECTOR('',#281,10.);
#86=VECTOR('',#282,10.);
#87=VECTOR('',#285,10.);
#88=VECTOR('',#286,10.);
#89=VECTOR('',#289,10.);
#90=VECTOR('',#290,10.);
#91=VECTOR('',#293,10.);
#92=VECTOR('',#294,10.);
#93=VECTOR('',#295,10.);
#94=VECTOR('',#298,10.);
#95=VECTOR('',#301,10.);
#96=VECTOR('',#302,10.);
#97=VECTOR('',#305,10.);
#98=VECTOR('',#308,10.);
#99=VERTEX_POINT('',#315);
#100=VERTEX_POINT('',#316);
#101=VERTEX_POINT('',#318);
#102=VERTEX_POINT('',#320);
#103=VERTEX_POINT('',#324);
#104=VERTEX_POINT('',#326);
#105=VERTEX_POINT('',#330);
#106=VERTEX_POINT('',#334);
#107=VERTEX_POINT('',#335);
#108=VERTEX_POINT('',#337);
#109=VERTEX_POINT('',#339);
#110=VERTEX_POINT('',#343);
#111=VERTEX_POINT('',#345);
#112=VERTEX_POINT('',#349);
#113=VERTEX_POINT('',#353);
#114=VERTEX_POINT('',#358);
#115=EDGE_CURVE('',#99,#100,#43,.T.);
#116=EDGE_CURVE('',#100,#101,#44,.T.);
#117=EDGE_CURVE('',#101,#102,#45,.T.);
#118=EDGE_CURVE('',#102,#99,#46,.T.);
#119=EDGE_CURVE('',#101,#103,#47,.T.);
#120=EDGE_CURVE('',#104,#103,#48,.T.);
#121=EDGE_CURVE('',#104,#102,#49,.T.);
#122=EDGE_CURVE('',#105,#100,#50,.T.);
#123=EDGE_CURVE('',#103,#105,#51,.T.);
#124=EDGE_CURVE('',#106,#107,#52,.T.);
#125=EDGE_CURVE('',#107,#108,#53,.T.);
#126=EDGE_CURVE('',#108,#109,#54,.T.);
#127=EDGE_CURVE('',#109,#106,#55,.T.);
#128=EDGE_CURVE('',#110,#107,#56,.T.);
#129=EDGE_CURVE('',#111,#110,#57,.T.);
#130=EDGE_CURVE('',#108,#111,#58,.T.);
#131=EDGE_CURVE('',#106,#112,#59,.T.);
#132=EDGE_CURVE('',#110,#112,#60,.T.);
#133=EDGE_CURVE('',#112,#113,#61,.T.);
#134=EDGE_CURVE('',#113,#111,#62,.T.);
#135=EDGE_CURVE('',#104,#112,#63,.F.);
#136=EDGE_CURVE('',#114,#104,#64,.T.);
#137=EDGE_CURVE('',#113,#114,#65,.F.);
#138=EDGE_CURVE('',#105,#114,#66,.T.);
#139=EDGE_CURVE('',#106,#102,#67,.F.);
#140=EDGE_CURVE('',#99,#109,#68,.F.);
#141=EDGE_CURVE('',#99,#114,#69,.T.);
#142=EDGE_CURVE('',#113,#109,#70,.T.);
#143=ORIENTED_EDGE('',*,*,#115,.T.);
#144=ORIENTED_EDGE('',*,*,#116,.T.);
#145=ORIENTED_EDGE('',*,*,#117,.T.);
#146=ORIENTED_EDGE('',*,*,#118,.T.);
#147=ORIENTED_EDGE('',*,*,#117,.F.);
#148=ORIENTED_EDGE('',*,*,#119,.T.);
#149=ORIENTED_EDGE('',*,*,#120,.F.);
#150=ORIENTED_EDGE('',*,*,#121,.T.);
#151=ORIENTED_EDGE('',*,*,#116,.F.);
#152=ORIENTED_EDGE('',*,*,#122,.F.);
#153=ORIENTED_EDGE('',*,*,#123,.F.);
#154=ORIENTED_EDGE('',*,*,#119,.F.);
#155=ORIENTED_EDGE('',*,*,#124,.T.);
#156=ORIENTED_EDGE('',*,*,#125,.T.);
#157=ORIENTED_EDGE('',*,*,#126,.T.);
#158=ORIENTED_EDGE('',*,*,#127,.T.);
#159=ORIENTED_EDGE('',*,*,#125,.F.);
#160=ORIENTED_EDGE('',*,*,#128,.F.);
#161=ORIENTED_EDGE('',*,*,#129,.F.);
#162=ORIENTED_EDGE('',*,*,#130,.F.);
#163=ORIENTED_EDGE('',*,*,#124,.F.);
#164=ORIENTED_EDGE('',*,*,#131,.T.);
#165=ORIENTED_EDGE('',*,*,#132,.F.);
#166=ORIENTED_EDGE('',*,*,#128,.T.);
#167=ORIENTED_EDGE('',*,*,#132,.T.);
#168=ORIENTED_EDGE('',*,*,#133,.T.);
#169=ORIENTED_EDGE('',*,*,#134,.T.);
#170=ORIENTED_EDGE('',*,*,#129,.T.);
#171=ORIENTED_EDGE('',*,*,#133,.F.);
#172=ORIENTED_EDGE('',*,*,#135,.F.);
#173=ORIENTED_EDGE('',*,*,#136,.F.);
#174=ORIENTED_EDGE('',*,*,#137,.F.);
#175=ORIENTED_EDGE('',*,*,#138,.T.);
#176=ORIENTED_EDGE('',*,*,#136,.T.);
#177=ORIENTED_EDGE('',*,*,#120,.T.);
#178=ORIENTED_EDGE('',*,*,#123,.T.);
#179=ORIENTED_EDGE('',*,*,#118,.F.);
#180=ORIENTED_EDGE('',*,*,#139,.F.);
#181=ORIENTED_EDGE('',*,*,#127,.F.);
#182=ORIENTED_EDGE('',*,*,#140,.F.);
#183=ORIENTED_EDGE('',*,*,#115,.F.);
#184=ORIENTED_EDGE('',*,*,#141,.T.);
#185=ORIENTED_EDGE('',*,*,#138,.F.);
#186=ORIENTED_EDGE('',*,*,#122,.T.);
#187=ORIENTED_EDGE('',*,*,#126,.F.);
#188=ORIENTED_EDGE('',*,*,#130,.T.);
#189=ORIENTED_EDGE('',*,*,#134,.F.);
#190=ORIENTED_EDGE('',*,*,#142,.T.);
#191=ORIENTED_EDGE('',*,*,#131,.F.);
#192=ORIENTED_EDGE('',*,*,#139,.T.);
#193=ORIENTED_EDGE('',*,*,#121,.F.);
#194=ORIENTED_EDGE('',*,*,#135,.T.);
#195=ORIENTED_EDGE('',*,*,#142,.F.);
#196=ORIENTED_EDGE('',*,*,#137,.T.);
#197=ORIENTED_EDGE('',*,*,#141,.F.);
#198=ORIENTED_EDGE('',*,*,#140,.T.);
#199=PLANE('',#241);
#200=PLANE('',#242);
#201=PLANE('',#243);
#202=PLANE('',#244);
#203=PLANE('',#245);
#204=PLANE('',#246);
#205=PLANE('',#247);
#206=PLANE('',#248);
#207=PLANE('',#249);
#208=PLANE('',#250);
#209=PLANE('',#251);
#210=PLANE('',#252);
#211=PLANE('',#253);
#212=PLANE('',#254);
#213=ADVANCED_FACE('',(#15),#199,.T.);
#214=ADVANCED_FACE('',(#16),#200,.T.);
#215=ADVANCED_FACE('',(#17),#201,.T.);
#216=ADVANCED_FACE('',(#18),#202,.T.);
#217=ADVANCED_FACE('',(#19),#203,.T.);
#218=ADVANCED_FACE('',(#20),#204,.T.);
#219=ADVANCED_FACE('',(#21),#205,.T.);
#220=ADVANCED_FACE('',(#22),#206,.T.);
#221=ADVANCED_FACE('',(#23),#207,.T.);
#222=ADVANCED_FACE('',(#24),#208,.T.);
#223=ADVANCED_FACE('',(#25),#209,.T.);
#224=ADVANCED_FACE('',(#26),#210,.T.);
#225=ADVANCED_FACE('',(#27),#211,.T.);
#226=ADVANCED_FACE('',(#28),#212,.T.);
#227=CLOSED_SHELL('',(#213,#214,#215,#216,#217,#218,#219,#220,#221,#222,
#223,#224,#225,#226));
#228=DERIVED_UNIT_ELEMENT(#230,1.);
#229=DERIVED_UNIT_ELEMENT(#377,-3.);
#230=(
MASS_UNIT()
NAMED_UNIT(*)
SI_UNIT(.KILO.,.GRAM.)
);
#231=DERIVED_UNIT((#228,#229));
#232=MEASURE_REPRESENTATION_ITEM('density measure',
POSITIVE_RATIO_MEASURE(7850.),#231);
#233=PROPERTY_DEFINITION_REPRESENTATION(#238,#235);
#234=PROPERTY_DEFINITION_REPRESENTATION(#239,#236);
#235=REPRESENTATION('material name',(#237),#374);
#236=REPRESENTATION('density',(#232),#374);
#237=DESCRIPTIVE_REPRESENTATION_ITEM('Steel','Steel');
#238=PROPERTY_DEFINITION('material property','material name',#384);
#239=PROPERTY_DEFINITION('material property','density of part',#384);
#240=AXIS2_PLACEMENT_3D('',#313,#255,#256);
#241=AXIS2_PLACEMENT_3D('',#314,#257,#258);
#242=AXIS2_PLACEMENT_3D('',#323,#263,#264);
#243=AXIS2_PLACEMENT_3D('',#329,#268,#269);
#244=AXIS2_PLACEMENT_3D('',#333,#272,#273);
#245=AXIS2_PLACEMENT_3D('',#342,#278,#279);
#246=AXIS2_PLACEMENT_3D('',#348,#283,#284);
#247=AXIS2_PLACEMENT_3D('',#352,#287,#288);
#248=AXIS2_PLACEMENT_3D('',#356,#291,#292);
#249=AXIS2_PLACEMENT_3D('',#361,#296,#297);
#250=AXIS2_PLACEMENT_3D('',#363,#299,#300);
#251=AXIS2_PLACEMENT_3D('',#366,#303,#304);
#252=AXIS2_PLACEMENT_3D('',#368,#306,#307);
#253=AXIS2_PLACEMENT_3D('',#370,#309,#310);
#254=AXIS2_PLACEMENT_3D('',#371,#311,#312);
#255=DIRECTION('axis',(0.,0.,1.));
#256=DIRECTION('refdir',(1.,0.,0.));
#257=DIRECTION('center_axis',(-0.707106781186546,0.,0.707106781186549));
#258=DIRECTION('ref_axis',(0.707106781186549,0.,0.707106781186546));
#259=DIRECTION('',(0.577350269189625,0.57735026918963,0.577350269189622));
#260=DIRECTION('',(0.,1.,0.));
#261=DIRECTION('',(-0.577350269189625,0.57735026918963,-0.577350269189622));
#262=DIRECTION('',(0.,-1.,0.));
#263=DIRECTION('center_axis',(0.,0.707106781186543,0.707106781186552));
#264=DIRECTION('ref_axis',(1.,0.,0.));
#265=DIRECTION('',(1.,0.,0.));
#266=DIRECTION('',(-0.577350269189625,-0.57735026918963,0.577350269189622));
#267=DIRECTION('',(-1.,0.,0.));
#268=DIRECTION('center_axis',(0.,0.,1.));
#269=DIRECTION('ref_axis',(-1.,0.,0.));
#270=DIRECTION('',(-1.,0.,0.));
#271=DIRECTION('',(0.,-1.,0.));
#272=DIRECTION('center_axis',(-0.707106781186548,0.,-0.707106781186548));
#273=DIRECTION('ref_axis',(-0.707106781186548,0.,0.707106781186548));
#274=DIRECTION('',(0.577350269189623,-0.577350269189631,-0.577350269189623));
#275=DIRECTION('',(0.,-1.,0.));
#276=DIRECTION('',(-0.577350269189623,-0.577350269189631,0.577350269189623));
#277=DIRECTION('',(0.,1.,0.));
#278=DIRECTION('center_axis',(0.,0.,-1.));
#279=DIRECTION('ref_axis',(1.,0.,0.));
#280=DIRECTION('',(-1.,0.,0.));
#281=DIRECTION('',(0.,1.,0.));
#282=DIRECTION('',(1.,0.,0.));
#283=DIRECTION('center_axis',(0.,0.707106781186543,-0.707106781186552));
#284=DIRECTION('ref_axis',(-1.,0.,0.));
#285=DIRECTION('',(1.,0.,0.));
#286=DIRECTION('',(0.577350269189625,0.57735026918963,0.577350269189622));
#287=DIRECTION('center_axis',(0.707106781186546,0.,-0.707106781186549));
#288=DIRECTION('ref_axis',(-0.707106781186549,0.,-0.707106781186546));
#289=DIRECTION('',(0.,-1.,0.));
#290=DIRECTION('',(-0.577350269189625,0.57735026918963,-0.577350269189622));
#291=DIRECTION('center_axis',(1.,0.,0.));
#292=DIRECTION('ref_axis',(0.,0.,1.));
#293=DIRECTION('',(0.,0.,1.));
#294=DIRECTION('',(0.,1.,0.));
#295=DIRECTION('',(0.,0.,-1.));
#296=DIRECTION('center_axis',(0.707106781186546,0.,0.707106781186549));
#297=DIRECTION('ref_axis',(0.707106781186549,0.,-0.707106781186546));
#298=DIRECTION('',(0.577350269189625,-0.57735026918963,-0.577350269189622));
#299=DIRECTION('center_axis',(-1.,0.,0.));
#300=DIRECTION('ref_axis',(0.,0.,-1.));
#301=DIRECTION('',(0.,0.,-1.));
#302=DIRECTION('',(0.,0.,1.));
#303=DIRECTION('center_axis',(0.,-0.707106781186543,0.707106781186552));
#304=DIRECTION('ref_axis',(1.,0.,0.));
#305=DIRECTION('',(1.,0.,0.));
#306=DIRECTION('center_axis',(0.,-0.707106781186543,-0.707106781186552));
#307=DIRECTION('ref_axis',(-1.,0.,0.));
#308=DIRECTION('',(-1.,0.,0.));
#309=DIRECTION('center_axis',(0.,1.,0.));
#310=DIRECTION('ref_axis',(0.,0.,1.));
#311=DIRECTION('center_axis',(0.,-1.,0.));
#312=DIRECTION('ref_axis',(0.,0.,-1.));
#313=CARTESIAN_POINT('',(0.,0.,0.));
#314=CARTESIAN_POINT('Origin',(-14.2500001937151,-190.5,8.25000012665987));
#315=CARTESIAN_POINT('',(-14.5000001937151,-200.5,8.00000012665987));
#316=CARTESIAN_POINT('',(-14.0000001937151,-200.,8.50000012665987));
#317=CARTESIAN_POINT('',(-9.166666811953,-195.166666618238,13.3333335084219));
#318=CARTESIAN_POINT('',(-14.0000001937151,-181.,8.50000012665987));
#319=CARTESIAN_POINT('',(-14.0000001937151,-190.5,8.50000012665987));
#320=CARTESIAN_POINT('',(-14.5000001937151,-180.5,8.00000012665987));
#321=CARTESIAN_POINT('',(-9.166666811953,-185.833333381762,13.3333335084219));
#322=CARTESIAN_POINT('',(-14.5000001937151,-190.5,8.00000012665987));
#323=CARTESIAN_POINT('Origin',(6.50000009685755,-180.75,8.25000012665987));
#324=CARTESIAN_POINT('',(14.0000001937151,-181.,8.50000012665987));
#325=CARTESIAN_POINT('',(6.50000009685755,-181.,8.50000012665987));
#326=CARTESIAN_POINT('',(14.5000001937151,-180.5,8.00000012665987));
#327=CARTESIAN_POINT('',(11.3333335109055,-183.66666668281,11.1666668094694));
#328=CARTESIAN_POINT('',(6.50000009685755,-180.5,8.00000012665987));
#329=CARTESIAN_POINT('Origin',(13.0000001937151,-190.5,8.50000012665987));
#330=CARTESIAN_POINT('',(14.0000001937151,-200.,8.50000012665987));
#331=CARTESIAN_POINT('',(6.50000009685755,-200.,8.50000012665987));
#332=CARTESIAN_POINT('',(14.0000001937151,-190.5,8.50000012665987));
#333=CARTESIAN_POINT('Origin',(-14.2500001937151,-190.5,4.75000006705523));
#334=CARTESIAN_POINT('',(-14.5000001937151,-180.5,5.00000006705523));
#335=CARTESIAN_POINT('',(-14.0000001937151,-181.,4.50000006705523));
#336=CARTESIAN_POINT('',(-11.3333335109055,-183.66666668281,1.83333338424565));
#337=CARTESIAN_POINT('',(-14.0000001937151,-200.,4.50000006705523));
#338=CARTESIAN_POINT('',(-14.0000001937151,-190.5,4.50000006705523));
#339=CARTESIAN_POINT('',(-14.5000001937151,-200.5,5.00000006705523));
#340=CARTESIAN_POINT('',(-11.3333335109055,-197.33333331719,1.83333338424565));
#341=CARTESIAN_POINT('',(-14.5000001937151,-190.5,5.00000006705523));
#342=CARTESIAN_POINT('Origin',(-13.0000001937151,-190.5,4.50000006705523));
#343=CARTESIAN_POINT('',(14.0000001937151,-181.,4.50000006705523));
#344=CARTESIAN_POINT('',(-6.50000009685755,-181.,4.50000006705523));
#345=CARTESIAN_POINT('',(14.0000001937151,-200.,4.50000006705523));
#346=CARTESIAN_POINT('',(14.0000001937151,-190.5,4.50000006705523));
#347=CARTESIAN_POINT('',(-6.50000009685755,-200.,4.50000006705523));
#348=CARTESIAN_POINT('Origin',(-6.50000009685755,-180.75,4.75000006705523));
#349=CARTESIAN_POINT('',(14.5000001937151,-180.5,5.00000006705523));
#350=CARTESIAN_POINT('',(-6.50000009685755,-180.5,5.00000006705523));
#351=CARTESIAN_POINT('',(9.166666811953,-185.833333381762,-0.333333314706849));
#352=CARTESIAN_POINT('Origin',(14.2500001937151,-190.5,4.75000006705523));
#353=CARTESIAN_POINT('',(14.5000001937151,-200.5,5.00000006705523));
#354=CARTESIAN_POINT('',(14.5000001937151,-190.5,5.00000006705523));
#355=CARTESIAN_POINT('',(9.166666811953,-195.166666618238,-0.333333314706849));
#356=CARTESIAN_POINT('Origin',(14.5000001937151,-190.5,4.50000006705523));
#357=CARTESIAN_POINT('',(14.5000001937151,-180.5,5.50000008195639));
#358=CARTESIAN_POINT('',(14.5000001937151,-200.5,8.00000012665987));
#359=CARTESIAN_POINT('',(14.5000001937151,-190.5,8.00000012665987));
#360=CARTESIAN_POINT('',(14.5000001937151,-200.5,5.50000008195639));
#361=CARTESIAN_POINT('Origin',(14.2500001937151,-190.5,8.25000012665987));
#362=CARTESIAN_POINT('',(11.3333335109055,-197.33333331719,11.1666668094694));
#363=CARTESIAN_POINT('Origin',(-14.5000001937151,-190.5,8.50000012665987));
#364=CARTESIAN_POINT('',(-14.5000001937151,-180.5,7.50000011175871));
#365=CARTESIAN_POINT('',(-14.5000001937151,-200.5,7.50000011175871));
#366=CARTESIAN_POINT('Origin',(6.50000009685755,-200.25,8.25000012665987));
#367=CARTESIAN_POINT('',(6.50000009685755,-200.5,8.00000012665987));
#368=CARTESIAN_POINT('Origin',(-6.50000009685755,-200.25,4.75000006705523));
#369=CARTESIAN_POINT('',(-6.50000009685755,-200.5,5.00000006705523));
#370=CARTESIAN_POINT('Origin',(0.,-180.5,6.50000009685755));
#371=CARTESIAN_POINT('Origin',(0.,-200.5,6.50000009685755));
#372=UNCERTAINTY_MEASURE_WITH_UNIT(LENGTH_MEASURE(0.01),#376,
'DISTANCE_ACCURACY_VALUE',
'Maximum model space distance between geometric entities at asserted c
onnectivities');
#373=UNCERTAINTY_MEASURE_WITH_UNIT(LENGTH_MEASURE(0.01),#376,
'DISTANCE_ACCURACY_VALUE',
'Maximum model space distance between geometric entities at asserted c
onnectivities');
#374=(
GEOMETRIC_REPRESENTATION_CONTEXT(3)
GLOBAL_UNCERTAINTY_ASSIGNED_CONTEXT((#372))
GLOBAL_UNIT_ASSIGNED_CONTEXT((#376,#378,#379))
REPRESENTATION_CONTEXT('','3D')
);
#375=(
GEOMETRIC_REPRESENTATION_CONTEXT(3)
GLOBAL_UNCERTAINTY_ASSIGNED_CONTEXT((#373))
GLOBAL_UNIT_ASSIGNED_CONTEXT((#376,#378,#379))
REPRESENTATION_CONTEXT('','3D')
);
#376=(
LENGTH_UNIT()
NAMED_UNIT(*)
SI_UNIT(.MILLI.,.METRE.)
);
#377=(
LENGTH_UNIT()
NAMED_UNIT(*)
SI_UNIT($,.METRE.)
);
#378=(
NAMED_UNIT(*)
PLANE_ANGLE_UNIT()
SI_UNIT($,.RADIAN.)
);
#379=(
NAMED_UNIT(*)
SI_UNIT($,.STERADIAN.)
SOLID_ANGLE_UNIT()
);
#380=SHAPE_DEFINITION_REPRESENTATION(#381,#382);
#381=PRODUCT_DEFINITION_SHAPE('',$,#384);
#382=SHAPE_REPRESENTATION('',(#240),#374);
#383=PRODUCT_DEFINITION_CONTEXT('part definition',#388,'design');
#384=PRODUCT_DEFINITION('2026-09-05-15-01-28-024','TAB30_Rev_B',#385,#383);
#385=PRODUCT_DEFINITION_FORMATION('',$,#390);
#386=PRODUCT_RELATED_PRODUCT_CATEGORY('TAB30_Rev_B','TAB30_Rev_B',(#390));
#387=APPLICATION_PROTOCOL_DEFINITION('international standard',
'automotive_design',2009,#388);
#388=APPLICATION_CONTEXT(
'Core Data for Automotive Mechanical Design Process');
#389=PRODUCT_CONTEXT('part definition',#388,'mechanical');
#390=PRODUCT('2026-09-05-15-01-28-024','TAB30_Rev_B',$,(#389));
#391=PRESENTATION_STYLE_ASSIGNMENT((#393));
#392=PRESENTATION_STYLE_ASSIGNMENT((#394));
#393=SURFACE_STYLE_USAGE(.BOTH.,#395);
#394=SURFACE_STYLE_USAGE(.BOTH.,#396);
#395=SURFACE_SIDE_STYLE('',(#397));
#396=SURFACE_SIDE_STYLE('',(#398));
#397=SURFACE_STYLE_FILL_AREA(#399);
#398=SURFACE_STYLE_FILL_AREA(#400);
#399=FILL_AREA_STYLE('Plate',(#401));
#400=FILL_AREA_STYLE('Paint - Metallic (Black)',(#402));
#401=FILL_AREA_STYLE_COLOUR('Plate',#403);
#402=FILL_AREA_STYLE_COLOUR('Paint - Metallic (Black)',#404);
#403=COLOUR_RGB('Plate',0.6,0.6,0.6);
#404=COLOUR_RGB('Paint - Metallic (Black)',0.0980392156862745,0.0980392156862745,
0.0980392156862745);
ENDSEC;
END-ISO-10303-21;
