solid exported
	facet normal -0.7071061226424542 0 -0.7071074397300277
		outer loop
			vertex -0.09300000220537186 -0.7519999742507935 0.01600000075995922
			vertex -0.0925000011920929 -0.7524999976158142 0.015500000678002834
			vertex -0.0925000011920929 -0.7714999914169312 0.015500000678002834
		endloop
	endfacet
	facet normal -0.7071061226424542 0 -0.7071074397300277
		outer loop
			vertex -0.09300000220537186 -0.7519999742507935 0.01600000075995922
			vertex -0.0925000011920929 -0.7714999914169312 0.015500000678002834
			vertex -0.09300000220537186 -0.7720000147819519 0.01600000075995922
		endloop
	endfacet
	facet normal 0.7071061226424542 0 -0.7071074397300277
		outer loop
			vertex -0.07750000059604645 -0.7524999976158142 0.015500000678002834
			vertex -0.07699999958276749 -0.7519999742507935 0.01600000075995922
			vertex -0.07699999958276749 -0.7720000147819519 0.01600000075995922
		endloop
	endfacet
	facet normal 0.7071061226424542 0 -0.7071074397300277
		outer loop
			vertex -0.07750000059604645 -0.7524999976158142 0.015500000678002834
			vertex -0.07699999958276749 -0.7720000147819519 0.01600000075995922
			vertex -0.07750000059604645 -0.7714999914169312 0.015500000678002834
		endloop
	endfacet
	facet normal 0 0.7070903177682126 -0.7071232442215771
		outer loop
			vertex -0.09300000220537186 -0.7519999742507935 0.01600000075995922
			vertex -0.07699999958276749 -0.7519999742507935 0.01600000075995922
			vertex -0.07750000059604645 -0.7524999976158142 0.015500000678002834
		endloop
	endfacet
	facet normal 0 0.7070903177682126 -0.707123244221577
		outer loop
			vertex -0.09300000220537186 -0.7519999742507935 0.01600000075995922
			vertex -0.07750000059604645 -0.7524999976158142 0.015500000678002834
			vertex -0.0925000011920929 -0.7524999976158142 0.015500000678002834
		endloop
	endfacet
	facet normal 0 -0.7070903177682126 -0.7071232442215771
		outer loop
			vertex -0.0925000011920929 -0.7714999914169312 0.015500000678002834
			vertex -0.07699999958276749 -0.7720000147819519 0.01600000075995922
			vertex -0.09300000220537186 -0.7720000147819519 0.01600000075995922
		endloop
	endfacet
	facet normal 0 -0.7070903177682126 -0.707123244221577
		outer loop
			vertex -0.0925000011920929 -0.7714999914169312 0.015500000678002834
			vertex -0.07750000059604645 -0.7714999914169312 0.015500000678002834
			vertex -0.07699999958276749 -0.7720000147819519 0.01600000075995922
		endloop
	endfacet
	facet normal 0 -1 0
		outer loop
			vertex -0.07699999958276749 -0.7720000147819519 0.01600000075995922
			vertex -0.07699999958276749 -0.7720000147819519 0.01899999938905239
			vertex -0.09300000220537186 -0.7720000147819519 0.01899999938905239
		endloop
	endfacet
	facet normal 0 -1 0
		outer loop
			vertex -0.07699999958276749 -0.7720000147819519 0.01600000075995922
			vertex -0.09300000220537186 -0.7720000147819519 0.01899999938905239
			vertex -0.09300000220537186 -0.7720000147819519 0.01600000075995922
		endloop
	endfacet
	facet normal 1 0 0
		outer loop
			vertex -0.07699999958276749 -0.7519999742507935 0.01600000075995922
			vertex -0.07699999958276749 -0.7519999742507935 0.01899999938905239
			vertex -0.07699999958276749 -0.7720000147819519 0.01899999938905239
		endloop
	endfacet
	facet normal 1 0 0
		outer loop
			vertex -0.07699999958276749 -0.7519999742507935 0.01600000075995922
			vertex -0.07699999958276749 -0.7720000147819519 0.01899999938905239
			vertex -0.07699999958276749 -0.7720000147819519 0.01600000075995922
		endloop
	endfacet
	facet normal 0 0 -1
		outer loop
			vertex -0.0925000011920929 -0.7524999976158142 0.015500000678002834
			vertex -0.07750000059604645 -0.7524999976158142 0.015500000678002834
			vertex -0.07750000059604645 -0.7714999914169312 0.015500000678002834
		endloop
	endfacet
	facet normal 0 0 -1
		outer loop
			vertex -0.0925000011920929 -0.7524999976158142 0.015500000678002834
			vertex -0.07750000059604645 -0.7714999914169312 0.015500000678002834
			vertex -0.0925000011920929 -0.7714999914169312 0.015500000678002834
		endloop
	endfacet
	facet normal 0.7071067811865476 0 0.7071067811865476
		outer loop
			vertex -0.07699999958276749 -0.7519999742507935 0.01899999938905239
			vertex -0.07750000059604645 -0.7524999976158142 0.019500000402331352
			vertex -0.07750000059604645 -0.7714999914169312 0.019500000402331352
		endloop
	endfacet
	facet normal 0.7071067811865476 0 0.7071067811865476
		outer loop
			vertex -0.07699999958276749 -0.7519999742507935 0.01899999938905239
			vertex -0.07750000059604645 -0.7714999914169312 0.019500000402331352
			vertex -0.07699999958276749 -0.7720000147819519 0.01899999938905239
		endloop
	endfacet
	facet normal -0.7071067811865476 0 0.7071067811865476
		outer loop
			vertex -0.0925000011920929 -0.7524999976158142 0.019500000402331352
			vertex -0.09300000220537186 -0.7519999742507935 0.01899999938905239
			vertex -0.09300000220537186 -0.7720000147819519 0.01899999938905239
		endloop
	endfacet
	facet normal -0.7071067811865476 0 0.7071067811865476
		outer loop
			vertex -0.0925000011920929 -0.7524999976158142 0.019500000402331352
			vertex -0.09300000220537186 -0.7720000147819519 0.01899999938905239
			vertex -0.0925000011920929 -0.7714999914169312 0.019500000402331352
		endloop
	endfacet
	facet normal 0 -0.7070909763270244 0.7071225856928172
		outer loop
			vertex -0.07750000059604645 -0.7714999914169312 0.019500000402331352
			vertex -0.0925000011920929 -0.7714999914169312 0.019500000402331352
			vertex -0.09300000220537186 -0.7720000147819519 0.01899999938905239
		endloop
	endfacet
	facet normal 0 -0.7070909763270244 0.7071225856928172
		outer loop
			vertex -0.07750000059604645 -0.7714999914169312 0.019500000402331352
			vertex -0.09300000220537186 -0.7720000147819519 0.01899999938905239
			vertex -0.07699999958276749 -0.7720000147819519 0.01899999938905239
		endloop
	endfacet
	facet normal 0 0.7070909763270244 0.7071225856928172
		outer loop
			vertex -0.07699999958276749 -0.7519999742507935 0.01899999938905239
			vertex -0.09300000220537186 -0.7519999742507935 0.01899999938905239
			vertex -0.0925000011920929 -0.7524999976158142 0.019500000402331352
		endloop
	endfacet
	facet normal 0 0.7070909763270244 0.7071225856928172
		outer loop
			vertex -0.07699999958276749 -0.7519999742507935 0.01899999938905239
			vertex -0.0925000011920929 -0.7524999976158142 0.019500000402331352
			vertex -0.07750000059604645 -0.7524999976158142 0.019500000402331352
		endloop
	endfacet
	facet normal -1 0 0
		outer loop
			vertex -0.09300000220537186 -0.7519999742507935 0.01899999938905239
			vertex -0.09300000220537186 -0.7519999742507935 0.01600000075995922
			vertex -0.09300000220537186 -0.7720000147819519 0.01600000075995922
		endloop
	endfacet
	facet normal -1 0 0
		outer loop
			vertex -0.09300000220537186 -0.7519999742507935 0.01899999938905239
			vertex -0.09300000220537186 -0.7720000147819519 0.01600000075995922
			vertex -0.09300000220537186 -0.7720000147819519 0.01899999938905239
		endloop
	endfacet
	facet normal 0 0 1
		outer loop
			vertex -0.07750000059604645 -0.7524999976158142 0.019500000402331352
			vertex -0.0925000011920929 -0.7524999976158142 0.019500000402331352
			vertex -0.0925000011920929 -0.7714999914169312 0.019500000402331352
		endloop
	endfacet
	facet normal 0 0 1
		outer loop
			vertex -0.07750000059604645 -0.7524999976158142 0.019500000402331352
			vertex -0.0925000011920929 -0.7714999914169312 0.019500000402331352
			vertex -0.07750000059604645 -0.7714999914169312 0.019500000402331352
		endloop
	endfacet
	facet normal 0 1 0
		outer loop
			vertex -0.07699999958276749 -0.7519999742507935 0.01899999938905239
			vertex -0.07699999958276749 -0.7519999742507935 0.01600000075995922
			vertex -0.09300000220537186 -0.7519999742507935 0.01600000075995922
		endloop
	endfacet
	facet normal 0 1 0
		outer loop
			vertex -0.07699999958276749 -0.7519999742507935 0.01899999938905239
			vertex -0.09300000220537186 -0.7519999742507935 0.01600000075995922
			vertex -0.09300000220537186 -0.7519999742507935 0.01899999938905239
		endloop
	endfacet
endsolid exported
