solid exported
	facet normal -0.7071067811865476 0 0.7071067811865476
		outer loop
			vertex -0.014000000432133675 -0.1809999942779541 0.008500000461935997
			vertex -0.014500000514090061 -0.2004999965429306 0.00800000037997961
			vertex -0.014000000432133675 -0.20000000298023224 0.008500000461935997
		endloop
	endfacet
	facet normal -0.7071067811865476 0 0.7071067811865476
		outer loop
			vertex -0.014000000432133675 -0.1809999942779541 0.008500000461935997
			vertex -0.014500000514090061 -0.18050000071525574 0.00800000037997961
			vertex -0.014500000514090061 -0.2004999965429306 0.00800000037997961
		endloop
	endfacet
	facet normal 0 0.707111391012374 0.7071021713306682
		outer loop
			vertex 0.014500000514090061 -0.18050000071525574 0.00800000037997961
			vertex -0.014500000514090061 -0.18050000071525574 0.00800000037997961
			vertex -0.014000000432133675 -0.1809999942779541 0.008500000461935997
		endloop
	endfacet
	facet normal 0 0.7071113910123741 0.7071021713306682
		outer loop
			vertex 0.014500000514090061 -0.18050000071525574 0.00800000037997961
			vertex -0.014000000432133675 -0.1809999942779541 0.008500000461935997
			vertex 0.014000000432133675 -0.1809999942779541 0.008500000461935997
		endloop
	endfacet
	facet normal 0 0 1
		outer loop
			vertex -0.014000000432133675 -0.20000000298023224 0.008500000461935997
			vertex 0.014000000432133675 -0.20000000298023224 0.008500000461935997
			vertex 0.014000000432133675 -0.1809999942779541 0.008500000461935997
		endloop
	endfacet
	facet normal 0 0 1
		outer loop
			vertex -0.014000000432133675 -0.20000000298023224 0.008500000461935997
			vertex 0.014000000432133675 -0.1809999942779541 0.008500000461935997
			vertex -0.014000000432133675 -0.1809999942779541 0.008500000461935997
		endloop
	endfacet
	facet normal -0.7071064519141175 0 -0.7071071104588242
		outer loop
			vertex -0.014500000514090061 -0.18050000071525574 0.004999999888241291
			vertex -0.014000000432133675 -0.1809999942779541 0.004500000271946192
			vertex -0.014000000432133675 -0.20000000298023224 0.004500000271946192
		endloop
	endfacet
	facet normal -0.7071064519141176 0 -0.7071071104588242
		outer loop
			vertex -0.014500000514090061 -0.18050000071525574 0.004999999888241291
			vertex -0.014000000432133675 -0.20000000298023224 0.004500000271946192
			vertex -0.014500000514090061 -0.2004999965429306 0.004999999888241291
		endloop
	endfacet
	facet normal 0 0 -1
		outer loop
			vertex 0.014000000432133675 -0.20000000298023224 0.004500000271946192
			vertex -0.014000000432133675 -0.20000000298023224 0.004500000271946192
			vertex -0.014000000432133675 -0.1809999942779541 0.004500000271946192
		endloop
	endfacet
	facet normal 0 0 -1
		outer loop
			vertex 0.014000000432133675 -0.20000000298023224 0.004500000271946192
			vertex -0.014000000432133675 -0.1809999942779541 0.004500000271946192
			vertex 0.014000000432133675 -0.1809999942779541 0.004500000271946192
		endloop
	endfacet
	facet normal 0 0.7071110617420907 -0.7071025006050915
		outer loop
			vertex -0.014500000514090061 -0.18050000071525574 0.004999999888241291
			vertex 0.014500000514090061 -0.18050000071525574 0.004999999888241291
			vertex 0.014000000432133675 -0.1809999942779541 0.004500000271946192
		endloop
	endfacet
	facet normal 0 0.7071110617420907 -0.7071025006050915
		outer loop
			vertex -0.014500000514090061 -0.18050000071525574 0.004999999888241291
			vertex 0.014000000432133675 -0.1809999942779541 0.004500000271946192
			vertex -0.014000000432133675 -0.1809999942779541 0.004500000271946192
		endloop
	endfacet
	facet normal 0.7071064519141176 0 -0.7071071104588242
		outer loop
			vertex 0.014000000432133675 -0.1809999942779541 0.004500000271946192
			vertex 0.014500000514090061 -0.18050000071525574 0.004999999888241291
			vertex 0.014500000514090061 -0.2004999965429306 0.004999999888241291
		endloop
	endfacet
	facet normal 0.7071064519141175 0 -0.7071071104588242
		outer loop
			vertex 0.014000000432133675 -0.1809999942779541 0.004500000271946192
			vertex 0.014500000514090061 -0.2004999965429306 0.004999999888241291
			vertex 0.014000000432133675 -0.20000000298023224 0.004500000271946192
		endloop
	endfacet
	facet normal 1 0 0
		outer loop
			vertex 0.014500000514090061 -0.2004999965429306 0.00800000037997961
			vertex 0.014500000514090061 -0.2004999965429306 0.004999999888241291
			vertex 0.014500000514090061 -0.18050000071525574 0.004999999888241291
		endloop
	endfacet
	facet normal 1 0 0
		outer loop
			vertex 0.014500000514090061 -0.2004999965429306 0.00800000037997961
			vertex 0.014500000514090061 -0.18050000071525574 0.004999999888241291
			vertex 0.014500000514090061 -0.18050000071525574 0.00800000037997961
		endloop
	endfacet
	facet normal 0.7071067811865476 0 0.7071067811865476
		outer loop
			vertex 0.014500000514090061 -0.18050000071525574 0.00800000037997961
			vertex 0.014000000432133675 -0.20000000298023224 0.008500000461935997
			vertex 0.014500000514090061 -0.2004999965429306 0.00800000037997961
		endloop
	endfacet
	facet normal 0.7071067811865476 0 0.7071067811865476
		outer loop
			vertex 0.014500000514090061 -0.18050000071525574 0.00800000037997961
			vertex 0.014000000432133675 -0.1809999942779541 0.008500000461935997
			vertex 0.014000000432133675 -0.20000000298023224 0.008500000461935997
		endloop
	endfacet
	facet normal -1 0 0
		outer loop
			vertex -0.014500000514090061 -0.2004999965429306 0.004999999888241291
			vertex -0.014500000514090061 -0.2004999965429306 0.00800000037997961
			vertex -0.014500000514090061 -0.18050000071525574 0.00800000037997961
		endloop
	endfacet
	facet normal -1 0 0
		outer loop
			vertex -0.014500000514090061 -0.2004999965429306 0.004999999888241291
			vertex -0.014500000514090061 -0.18050000071525574 0.00800000037997961
			vertex -0.014500000514090061 -0.18050000071525574 0.004999999888241291
		endloop
	endfacet
	facet normal 0 -0.7071113910123741 0.7071021713306682
		outer loop
			vertex 0.014000000432133675 -0.20000000298023224 0.008500000461935997
			vertex -0.014000000432133675 -0.20000000298023224 0.008500000461935997
			vertex -0.014500000514090061 -0.2004999965429306 0.00800000037997961
		endloop
	endfacet
	facet normal 0 -0.707111391012374 0.7071021713306682
		outer loop
			vertex 0.014000000432133675 -0.20000000298023224 0.008500000461935997
			vertex -0.014500000514090061 -0.2004999965429306 0.00800000037997961
			vertex 0.014500000514090061 -0.2004999965429306 0.00800000037997961
		endloop
	endfacet
	facet normal 0 -0.7071110617420907 -0.7071025006050915
		outer loop
			vertex -0.014000000432133675 -0.20000000298023224 0.004500000271946192
			vertex 0.014000000432133675 -0.20000000298023224 0.004500000271946192
			vertex 0.014500000514090061 -0.2004999965429306 0.004999999888241291
		endloop
	endfacet
	facet normal 0 -0.7071110617420907 -0.7071025006050915
		outer loop
			vertex -0.014000000432133675 -0.20000000298023224 0.004500000271946192
			vertex 0.014500000514090061 -0.2004999965429306 0.004999999888241291
			vertex -0.014500000514090061 -0.2004999965429306 0.004999999888241291
		endloop
	endfacet
	facet normal 0 1 0
		outer loop
			vertex 0.014500000514090061 -0.18050000071525574 0.00800000037997961
			vertex 0.014500000514090061 -0.18050000071525574 0.004999999888241291
			vertex -0.014500000514090061 -0.18050000071525574 0.004999999888241291
		endloop
	endfacet
	facet normal 0 1 0
		outer loop
			vertex 0.014500000514090061 -0.18050000071525574 0.00800000037997961
			vertex -0.014500000514090061 -0.18050000071525574 0.004999999888241291
			vertex -0.014500000514090061 -0.18050000071525574 0.00800000037997961
		endloop
	endfacet
	facet normal 0 -1 0
		outer loop
			vertex 0.014500000514090061 -0.2004999965429306 0.004999999888241291
			vertex 0.014500000514090061 -0.2004999965429306 0.00800000037997961
			vertex -0.014500000514090061 -0.2004999965429306 0.00800000037997961
		endloop
	endfacet
	facet normal 0 -1 0
		outer loop
			vertex 0.014500000514090061 -0.2004999965429306 0.004999999888241291
			vertex -0.014500000514090061 -0.2004999965429306 0.00800000037997961
			vertex -0.014500000514090061 -0.2004999965429306 0.004999999888241291
		endloop
	endfacet
endsolid exported
